<?xml version="1.0" encoding="UTF-8"?>
<svg xmlns="http://www.w3.org/2000/svg" width="1197" height="244" viewBox="0 0 1197 244" fill="none">
  <g clip-path="url(#clip0_575_9840)">
    <path d="M23.6465 104.764C16.2179 100.264 10.4214 94.1319 6.25705 86.3677C2.09272 78.6034 0.00292969 69.9849 0.00292969 60.497C0.00292969 51.009 1.89442 42.2991 5.6774 34.0619C9.46037 25.8248 15.1196 19.1436 22.6398 14.0182C30.16 8.89292 39.2361 6.33026 49.8681 6.33026C60.5001 6.33026 70.0795 9.25902 78.8963 15.1013L78.1794 7.33702H85.9436V40.6821H80.7725C79.8115 31.7738 76.6692 24.8028 71.3609 19.769C66.0372 14.7352 59.2187 12.2183 50.8748 12.2183C44.0716 12.2183 37.8632 14.1098 32.265 17.8927C26.6668 21.6757 22.2279 27.0756 18.9788 34.0619C15.7145 41.0635 14.0976 49.1481 14.0976 58.3462C14.0976 67.5443 15.8213 75.034 19.2687 81.9898C22.716 88.9303 27.3685 94.3455 33.2108 98.22C39.053 102.094 45.5207 104.047 52.6138 104.047C59.0357 104.047 65.2135 102.613 71.1473 99.7301C77.0811 96.8624 81.9776 92.7896 85.8063 87.5117L89.5436 90.532C83.9911 98.2963 77.615 103.727 70.4304 106.838C63.2458 109.95 56.0612 111.506 48.8766 111.506C39.4801 111.506 31.0752 109.249 23.6618 104.749L23.6465 104.764Z" fill="#080A25"></path>
    <path d="M111.309 106.838C105.985 103.726 101.806 99.2723 98.7399 93.4758C95.6738 87.6793 94.1484 80.9981 94.1484 73.4321C94.1484 66.7204 95.6738 60.4205 98.7399 54.5325C101.806 48.6445 106.092 43.9157 111.599 40.3768C117.106 36.8379 123.36 35.0685 130.346 35.0685C135.807 35.0685 140.734 36.2735 145.142 38.6531C149.551 41.048 153.044 44.6174 155.637 49.3614C158.23 54.1054 159.512 59.9171 159.512 66.8272L108.93 67.6814C108.838 79.1828 110.729 88.1369 114.604 94.5588C118.478 100.981 124.489 104.184 132.634 104.184C137.043 104.184 141.573 103.04 146.21 100.737C150.863 98.4333 154.417 95.6113 156.918 92.2555L160.366 95.1232C156.72 100.676 152.007 104.809 146.21 107.479C140.414 110.164 134.739 111.506 129.187 111.506C122.582 111.506 116.617 109.95 111.294 106.838H111.309ZM146.012 61.6561C146.012 55.9053 144.715 50.9783 142.137 46.8597C139.544 42.7412 135.67 40.6819 130.499 40.6819C118.616 40.6819 111.584 47.6682 109.372 61.6561H146.012Z" fill="#080A25"></path>
    <path d="M166.562 104.901C169.339 104.901 171.322 104.199 172.527 102.811C173.717 101.423 174.418 99.6994 174.617 97.6401C174.815 95.5808 174.952 92.1639 175.044 87.359L175.181 54.5935C175.181 50.5665 175.364 47.4547 175.761 45.2581L165.556 45.8377V39.7972C171.215 39.7972 175.089 39.4921 177.194 38.8667C179.299 38.2413 181.069 37.265 182.518 35.9227H186.682C186.865 37.7379 187.064 40.6666 187.262 44.6937C190.511 41.8259 194.233 39.4921 198.397 37.7226C202.562 35.9532 206.665 35.0685 210.692 35.0685C219.021 35.0685 225.107 37.6769 228.936 42.8937C232.765 48.1106 234.687 56.2409 234.687 67.2543V93.9792C234.687 98.296 234.488 101.545 234.107 103.757L243.168 103.33V109.218H213.85V104.901C216.626 104.901 218.609 104.199 219.814 102.811C221.004 101.423 221.736 99.6536 221.965 97.4876C222.209 95.3368 222.331 91.9504 222.331 87.359V67.239C222.239 59.0019 220.897 52.7935 218.304 48.6292C215.711 44.4649 211.638 42.3751 206.085 42.3751C202.638 42.3751 199.206 43.2293 195.804 44.9683C192.403 46.692 189.596 48.9495 187.399 51.7258C187.491 52.7783 187.537 54.6545 187.537 57.324L187.399 93.9639C187.399 98.2808 187.201 101.53 186.82 103.742L195.881 103.315V109.203H166.562V104.886V104.901Z" fill="#080A25"></path>
    <path d="M251.343 85.0687L251.633 43.3949L240.574 43.5322V37.3544C245.166 37.2629 249.071 35.1731 252.289 31.1003C255.493 27.0275 257.872 22.4055 259.398 17.2344H264.279V37.3544H288.426V42.9678L264.279 43.2577C264.187 57.9167 264.111 68.0758 264.065 73.7198C264.02 79.379 263.989 82.5366 263.989 83.2077C263.989 90.011 264.797 95.06 266.43 98.3701C268.062 101.68 270.884 103.328 274.911 103.328C277.397 103.328 279.868 102.565 282.309 101.024C284.75 99.4989 286.885 97.3786 288.7 94.6939L292.575 97.8515C288.838 103.404 285.146 107.065 281.516 108.85C277.87 110.619 274.331 111.504 270.884 111.504C257.75 111.504 251.237 102.687 251.343 85.0687Z" fill="#080A25"></path>
    <path d="M296.615 104.901C299.391 104.901 301.374 104.199 302.579 102.811C303.769 101.423 304.501 99.6536 304.73 97.4876C304.974 95.3368 305.096 91.9504 305.096 87.359V54.5935C305.096 50.5665 305.279 47.4547 305.676 45.2581L295.471 45.6852V39.7972H299.925C303.571 39.7972 306.194 39.4921 307.826 38.8667C309.459 38.2413 310.984 37.265 312.418 35.9227H316.582C316.964 39.6599 317.208 44.4039 317.299 50.1546C319.694 46.2343 323.126 42.7259 327.58 39.6599C332.034 36.5938 336.656 35.0685 341.446 35.0685C344.314 35.0685 346.709 35.8311 348.631 37.3718C350.553 38.9124 351.498 41.1548 351.498 44.1293C351.498 45.6699 350.904 47.1953 349.698 48.736C348.493 50.2766 346.8 51.0393 344.604 51.0393C342.407 51.0393 340.775 50.2461 339.433 48.675C338.09 47.0886 337.556 45.1971 337.846 43.0005C334.2 42.909 330.54 44.2971 326.848 47.1648C323.157 50.0326 320.014 53.8766 317.436 58.6663L317.574 94.0249C317.574 98.3418 317.375 101.591 316.994 103.803L326.055 103.376V109.264H296.6V104.947L296.615 104.901Z" fill="#080A25"></path>
    <path d="M368.981 106.838C363.657 103.726 359.478 99.2723 356.412 93.4758C353.346 87.6793 351.82 80.9981 351.82 73.4321C351.82 66.7204 353.346 60.4205 356.412 54.5325C359.478 48.6445 363.764 43.9157 369.271 40.3768C374.777 36.8379 381.032 35.0685 388.018 35.0685C393.479 35.0685 398.406 36.2735 402.814 38.6531C407.223 41.048 410.716 44.6174 413.309 49.3614C415.902 54.1054 417.183 59.9171 417.183 66.8272L366.601 67.6814C366.51 79.1828 368.401 88.1369 372.276 94.5588C376.15 100.981 382.16 104.184 390.306 104.184C394.714 104.184 399.245 103.04 403.882 100.737C408.534 98.4333 412.089 95.6113 414.59 92.2555L418.038 95.1232C414.392 100.676 409.678 104.809 403.882 107.479C398.085 110.164 392.411 111.506 386.859 111.506C380.254 111.506 374.289 109.95 368.966 106.838H368.981ZM403.684 61.6561C403.684 55.9053 402.387 50.9783 399.809 46.8597C397.216 42.7412 393.342 40.6819 388.17 40.6819C376.288 40.6819 369.256 47.6682 367.044 61.6561H403.684Z" fill="#080A25"></path>
    <path d="M507.931 39.5207C512.095 42.0071 515.359 45.6223 517.708 50.3662C520.058 55.1102 521.232 60.7389 521.232 67.2524C521.232 75.1081 519.814 82.3385 516.992 88.9587C514.17 95.5637 510.097 100.857 504.773 104.838C499.449 108.819 493.211 110.802 486.026 110.802C476.919 110.802 470.055 107.813 465.403 101.818C460.75 95.8382 458.432 88.0892 458.432 78.6165C458.432 70.7608 459.865 63.5762 462.748 57.0627C465.631 50.5493 469.735 45.3782 475.104 41.5342C480.474 37.7055 486.743 35.7835 493.928 35.7835C499.099 35.7835 503.766 37.0343 507.946 39.5207H507.931ZM480.626 45.6223C477.514 48.6426 475.135 52.7611 473.518 57.978C471.886 63.1948 471.077 69.0218 471.077 75.4437C471.077 83.391 472.374 90.3621 474.952 96.3569C477.545 102.352 481.755 105.341 487.597 105.341C492.478 105.341 496.49 103.48 499.602 99.7432C502.714 96.006 504.987 91.4146 506.436 85.9537C507.87 80.4928 508.587 75.1692 508.587 69.9981C508.587 61.944 507.321 55.1255 504.773 49.512C502.226 43.9138 497.848 41.1071 491.624 41.1071C487.414 41.1071 483.738 42.6172 480.626 45.6375V45.6223Z" fill="#080A25"></path>
    <path d="M575.685 1.93617C577.5 3.23276 578.415 5.07848 578.415 7.47335C578.415 8.8157 577.958 10.1123 577.043 11.3479C576.127 12.5987 574.77 13.2088 572.939 13.2088C571.017 13.2088 569.507 12.5377 568.409 11.1953C567.311 9.85297 566.807 8.12927 566.899 6.02423C566.319 5.64288 565.221 5.44458 563.589 5.44458C559.089 5.44458 555.855 8.12927 553.887 13.4987C551.919 18.868 550.516 26.8153 549.646 37.3558H570.056L569.629 42.9693L549.219 43.2591L548.792 51.3132C548.121 62.5248 547.587 70.5179 547.206 75.3076L546.336 85.5125C545.192 99.5919 543.85 110.743 542.309 118.919C540.769 127.11 537.901 134.035 533.691 139.679C529.481 145.338 523.288 148.16 515.157 148.16C511.512 148.16 508.735 147.535 506.829 146.299C504.907 145.049 503.961 143.188 503.961 140.701C503.961 139.359 504.434 138.047 505.395 136.75C506.356 135.454 507.744 134.813 509.559 134.813C511.374 134.813 512.823 135.408 513.876 136.613C514.929 137.818 515.462 139.42 515.462 141.433C516.515 142.196 517.903 142.577 519.627 142.577C523.074 142.577 525.713 140.686 527.528 136.903C529.343 133.12 530.64 128.208 531.403 122.168C532.165 116.127 532.989 107.173 533.843 95.2903C534.423 85.7108 534.942 78.6177 535.43 74.0263L536.284 63.6841C536.757 56.4995 537.337 49.742 538.008 43.4269L525.362 43.5642L526.079 37.3863H538.725C540.448 25.5035 543.469 16.3054 547.785 9.79195C552.102 3.27852 558.799 0.0141754 567.905 0.0141754C571.261 0.0141754 573.839 0.654841 575.67 1.95143L575.685 1.93617Z" fill="#080A25"></path>
    <path d="M602.855 104.474C606.211 104.382 608.606 103.62 610.04 102.17C611.474 100.737 612.298 99.0281 612.481 97.0603C612.664 95.0926 612.771 91.6757 612.771 86.7792V24.7261C612.771 20.6991 612.908 17.2517 613.198 14.384L602.855 14.9636V8.63324H671.986L672.703 33.787H667.959C667.959 25.9312 666.251 20.5618 662.864 17.6941C659.463 14.8263 654.688 13.484 648.572 13.667L636.216 13.9569C632.768 14.0484 630.267 14.7043 628.741 15.8941C627.201 17.0992 626.255 18.7619 625.874 20.9279C625.492 23.0787 625.294 26.4651 625.294 31.0565V54.0442L652.309 54.1815L651.302 41.8258H657.632V71.9981H652.888C652.888 68.4592 652.461 65.744 651.592 63.883C650.722 62.022 649.411 60.7712 647.641 60.1458C645.872 59.5204 643.4 59.2153 640.243 59.2153L635.789 59.3526L625.294 59.7797V92.6824C625.294 97.6705 625.157 101.408 624.867 103.894L652.309 103.467C659.02 103.375 664.146 101.667 667.685 98.3569C671.224 95.0468 673.008 89.3266 673.008 81.181H677.89L677.035 109.202H602.886V104.458L602.855 104.474Z" fill="#080A25"></path>
    <path d="M683.472 104.901C686.157 104.229 688.308 103.131 689.94 101.591C691.572 100.065 693.967 97.2736 697.125 93.2619L711.494 74.5758C709.862 72.4707 708.306 70.4115 706.826 68.3979C705.347 66.3844 703.974 64.5234 702.723 62.7997L697.262 55.4779C693.906 51.0695 691.465 46.9051 689.94 42.9696L683.183 43.2595V37.3714H712.791V41.6883C710.304 41.7798 708.458 42.1154 707.253 42.6951C706.048 43.2747 705.453 44.1747 705.453 45.4255C705.453 47.439 706.979 50.5508 710.045 54.7609L718.373 66.1099L731.446 50.3068L733.749 47.439C735.854 44.9526 737.243 43.3662 737.914 42.6951L727.999 43.2747V37.3867H751.566V41.7035C747.92 42.7561 745.053 44.2204 742.948 46.0967C740.843 47.9577 737.532 51.6339 733.032 57.0948L721.973 70.3199L741.804 94.894C742.185 95.4737 743.054 96.6177 744.397 98.3414C745.739 100.065 746.99 101.88 748.134 103.802L754.602 103.375V109.263H726.87V104.946C730.409 104.946 732.194 103.94 732.194 101.926C732.194 100.874 731.568 99.5312 730.333 97.8991L715.246 79.213L703.181 95.733C700.694 99.0889 698.482 101.774 696.576 103.787L707.635 103.36V109.248H683.488V104.931L683.472 104.901Z" fill="#080A25"></path>
    <path d="M758.335 141.555C761.111 141.555 763.094 140.854 764.299 139.466C765.489 138.078 766.191 136.354 766.389 134.295C766.572 132.235 766.724 128.803 766.816 124.029L767.106 54.6233C767.106 50.5962 767.289 47.4844 767.685 45.2879L757.48 45.8675V39.827C763.14 39.827 767.014 39.5219 769.119 38.8965C771.224 38.2711 772.948 37.2948 774.29 35.9525H778.607C778.989 40.6507 779.187 43.2286 779.187 43.7167C782.055 41.1235 785.517 39.049 789.529 37.4626C793.556 35.8762 797.522 35.0982 801.458 35.0982C807.117 35.0982 812.334 36.5626 817.123 39.4761C821.913 42.4049 825.772 46.5692 828.686 51.9843C831.615 57.3995 833.064 63.6536 833.064 70.7314C833.064 78.6787 831.386 85.7566 828.03 91.9344C824.674 98.1123 820.205 102.932 814.591 106.38C808.993 109.827 802.922 111.551 796.409 111.551C789.895 111.551 784.053 109.965 779.156 106.807V130.664C779.156 134.981 778.958 138.23 778.577 140.442L787.637 140.015V145.903H758.319V141.586L758.335 141.555ZM807.849 101.605C811.159 98.8292 813.722 94.9394 815.537 89.9667C817.352 84.9786 818.267 79.3347 818.267 73.0043C818.267 64.3858 816.422 57.0792 812.73 51.0844C809.039 45.1048 803.563 42.0998 796.271 42.0998C793.114 42.0998 790.048 42.8625 787.073 44.4031C784.099 45.9438 781.521 47.8505 779.309 50.1539C779.4 50.825 779.446 53.7538 779.446 58.9249L779.309 100.172C784.19 103.909 789.804 105.785 796.119 105.785C800.619 105.785 804.524 104.397 807.834 101.621L807.849 101.605Z" fill="#080A25"></path>
    <path d="M856.571 106.838C851.247 103.726 847.068 99.2723 844.002 93.4758C840.936 87.6793 839.41 80.9981 839.41 73.4321C839.41 66.7204 840.936 60.4205 844.002 54.5325C847.068 48.6445 851.354 43.9157 856.861 40.3768C862.367 36.8379 868.622 35.0685 875.608 35.0685C881.069 35.0685 885.996 36.2735 890.404 38.6531C894.812 41.048 898.306 44.6174 900.899 49.3614C903.492 54.1054 904.773 59.9171 904.773 66.8272L854.191 67.6814C854.1 79.1828 855.991 88.1369 859.866 94.5588C863.74 100.981 869.75 104.184 877.896 104.184C882.304 104.184 886.835 103.04 891.472 100.737C896.124 98.4333 899.679 95.6113 902.18 92.2555L905.628 95.1232C901.982 100.676 897.268 104.809 891.472 107.479C885.675 110.164 880.001 111.506 874.449 111.506C867.844 111.506 861.879 109.95 856.556 106.838H856.571ZM891.274 61.6561C891.274 55.9053 889.977 50.9783 887.399 46.8597C884.806 42.7412 880.931 40.6819 875.76 40.6819C863.878 40.6819 856.845 47.6682 854.634 61.6561H891.274Z" fill="#080A25"></path>
    <path d="M912.969 104.901C915.745 104.901 917.728 104.199 918.933 102.811C920.123 101.423 920.856 99.6536 921.084 97.4876C921.328 95.3368 921.45 91.9504 921.45 87.359V54.5935C921.45 50.5665 921.633 47.4547 922.03 45.2581L911.825 45.6852V39.7972H916.279C919.925 39.7972 922.549 39.4921 924.181 38.8667C925.813 38.2413 927.338 37.265 928.772 35.9227H932.937C933.318 39.6599 933.562 44.4039 933.654 50.1546C936.048 46.2343 939.481 42.7259 943.935 39.6599C948.389 36.5938 953.011 35.0685 957.801 35.0685C960.668 35.0685 963.063 35.8311 964.985 37.3718C966.907 38.9124 967.853 41.1548 967.853 44.1293C967.853 45.6699 967.258 47.1953 966.053 48.736C964.848 50.2766 963.155 51.0393 960.958 51.0393C958.762 51.0393 957.129 50.2461 955.787 48.675C954.445 47.0886 953.911 45.1971 954.201 43.0005C950.555 42.909 946.894 44.2971 943.203 47.1648C939.511 50.0326 936.369 53.8766 933.791 58.6663L933.928 94.0249C933.928 98.3418 933.73 101.591 933.348 103.803L942.409 103.376V109.264H912.954V104.947L912.969 104.901Z" fill="#080A25"></path>
    <path d="M982.096 85.0687L982.386 43.3949L971.327 43.5322V37.3544C975.919 37.2629 979.824 35.1731 983.042 31.1003C986.245 27.0275 988.625 22.4055 990.15 17.2344H995.032V37.3544H1019.18V42.9678L995.032 43.2577C994.94 57.9167 994.864 68.0758 994.818 73.7198C994.772 79.379 994.742 82.5366 994.742 83.2077C994.742 90.011 995.55 95.06 997.183 98.3701C998.815 101.68 1001.64 103.328 1005.66 103.328C1008.15 103.328 1010.62 102.565 1013.06 101.024C1015.5 99.4989 1017.64 97.3786 1019.45 94.6939L1023.33 97.8515C1019.59 103.404 1015.9 107.065 1012.27 108.85C1008.62 110.619 1005.08 111.504 1001.64 111.504C988.503 111.504 981.99 102.687 982.096 85.0687Z" fill="#080A25"></path>
    <path d="M1028.79 104.9C1031.57 104.9 1033.55 104.199 1034.76 102.81C1035.95 101.422 1036.68 99.6529 1036.91 97.4869C1037.15 95.3361 1037.27 91.9497 1037.27 87.3582V54.5928C1037.27 51.8166 1037.46 48.7048 1037.85 45.2574L1027.65 45.837V39.7965C1033.31 39.7965 1037.35 39.4609 1039.79 38.7897C1042.23 38.1185 1044.12 37.1575 1045.46 35.922H1049.63V93.9785C1049.63 98.2953 1049.43 101.544 1049.05 103.756L1058.11 103.329V109.217H1028.79V104.9ZM1037.72 19.1884C1036.17 17.5104 1035.41 15.5274 1035.41 13.2241C1035.41 10.9207 1036.2 8.90723 1037.78 7.18353C1039.36 5.45984 1041.15 4.59036 1043.16 4.59036C1045.36 4.59036 1047.2 5.42933 1048.7 7.10726C1050.18 8.7852 1050.92 10.814 1050.92 13.2088C1050.92 15.6037 1050.13 17.4952 1048.56 19.1731C1046.97 20.8511 1045.13 21.69 1043.02 21.69C1040.92 21.69 1039.24 20.8511 1037.7 19.1731L1037.72 19.1884Z" fill="#080A25"></path>
    <path d="M1080.53 109.722C1076.79 108.517 1073.59 107.022 1070.9 105.191L1071.48 110.225H1065.44L1064.57 85.4983H1069.03C1069.23 89.4339 1070.29 92.927 1072.26 95.9931C1074.23 99.0591 1076.81 101.484 1080.03 103.254C1083.23 105.023 1086.66 105.908 1090.31 105.908C1094.43 105.908 1098.09 104.932 1101.3 102.964C1104.51 100.996 1106.12 98.2049 1106.12 94.5592C1106.12 91.8745 1105.33 89.6322 1103.76 87.8017C1102.17 85.9865 1100.22 84.4763 1097.87 83.2713C1095.52 82.0662 1092.24 80.6628 1088.03 79.0307C1082.95 77.1087 1078.88 75.324 1075.82 73.646C1072.75 71.9681 1070.11 69.6953 1067.91 66.8275C1065.7 63.9598 1064.6 60.3141 1064.6 55.9057C1064.6 52.7481 1065.37 49.5753 1066.91 46.4177C1068.43 43.2602 1071.03 40.5755 1074.67 38.3637C1078.32 36.1671 1083.15 35.0536 1089.19 35.0536C1092.17 35.0536 1095.2 35.5264 1098.31 36.4874C1101.43 37.4484 1104.32 39.0196 1107.01 41.2314L1106.72 35.7705H1112.76V60.9242H1108.17C1107.88 55.3718 1106.19 50.5516 1103.07 46.4788C1099.96 42.406 1095.57 40.3772 1089.93 40.3772C1085.61 40.3772 1082.19 41.4602 1079.64 43.611C1077.1 45.7618 1075.83 48.3245 1075.83 51.299C1075.83 54.0752 1076.67 56.4243 1078.35 58.3463C1080.03 60.2683 1082.1 61.8852 1084.6 63.2276C1087.09 64.5699 1090.44 66.0496 1094.65 67.6817C1099.64 69.6953 1103.65 71.5562 1106.72 73.2799C1109.79 75.0036 1112.39 77.2765 1114.55 80.0984C1116.7 82.9204 1117.78 86.3526 1117.78 90.3796C1117.78 94.9863 1116.6 98.8608 1114.26 102.018C1111.91 105.176 1108.84 107.556 1105.06 109.127C1101.27 110.713 1097.23 111.491 1092.91 111.491C1088.6 111.491 1084.3 110.896 1080.56 109.691L1080.53 109.722Z" fill="#080A25"></path>
    <path d="M1138.22 106.838C1132.9 103.726 1128.72 99.2723 1125.65 93.4758C1122.59 87.6793 1121.06 80.9981 1121.06 73.4321C1121.06 66.7204 1122.59 60.4205 1125.65 54.5325C1128.72 48.6445 1133 43.9157 1138.51 40.3768C1144.02 36.8379 1150.27 35.0685 1157.26 35.0685C1162.72 35.0685 1167.65 36.2735 1172.05 38.6531C1176.46 41.048 1179.96 44.6174 1182.55 49.3614C1185.14 54.1054 1186.42 59.9171 1186.42 66.8272L1135.84 67.6814C1135.75 79.1828 1137.64 88.1369 1141.52 94.5588C1145.39 100.981 1151.4 104.184 1159.55 104.184C1163.95 104.184 1168.49 103.04 1173.12 100.737C1177.77 98.4333 1181.33 95.6113 1183.83 92.2555L1187.28 95.1232C1183.63 100.676 1178.92 104.809 1173.12 107.479C1167.33 110.164 1161.65 111.506 1156.1 111.506C1149.49 111.506 1143.53 109.95 1138.21 106.838H1138.22ZM1172.94 61.6561C1172.94 55.9053 1171.64 50.9783 1169.06 46.8597C1166.47 42.7412 1162.6 40.6819 1157.43 40.6819C1145.54 40.6819 1138.51 47.6682 1136.3 61.6561H1172.94Z" fill="#080A25"></path>
    <path d="M23.6465 237.122C16.2179 232.622 10.4214 226.49 6.25705 218.726C2.09272 210.962 0.00292969 202.343 0.00292969 192.855C0.00292969 183.367 1.89442 174.657 5.6774 166.405C9.46037 158.168 15.1196 151.486 22.6398 146.361C30.16 141.236 39.2361 138.673 49.8681 138.673C60.5001 138.673 70.0795 141.602 78.8963 147.444L78.1794 139.68H85.9436V173.025H80.7725C79.8115 164.117 76.6692 157.146 71.3609 152.112C66.0525 147.078 59.2187 144.561 50.8748 144.561C44.0716 144.561 37.8632 146.453 32.265 150.236C26.6668 154.019 22.2279 159.403 18.9788 166.405C15.7145 173.406 14.0976 181.491 14.0976 190.689C14.0976 199.887 15.8213 207.392 19.2687 214.333C22.716 221.273 27.3685 226.688 33.2108 230.578C39.053 234.453 45.5207 236.39 52.6138 236.39C59.0357 236.39 65.2135 234.956 71.1473 232.073C77.0811 229.205 81.9776 225.132 85.8063 219.855L89.5436 222.875C83.9911 230.639 77.615 236.069 70.4304 239.181C63.2458 242.293 56.0612 243.849 48.8766 243.849C39.4801 243.849 31.0752 241.591 23.6618 237.091L23.6465 237.122Z" fill="#080A25"></path>
    <path d="M95.8589 237.274C98.6351 237.274 100.618 236.572 101.823 235.184C103.013 233.796 103.745 232.026 103.974 229.875C104.218 227.725 104.34 224.338 104.34 219.747V186.981C104.34 182.954 104.523 179.843 104.92 177.646L94.7148 178.073V172.185H99.169C102.815 172.185 105.438 171.88 107.071 171.255C108.703 170.629 110.228 169.653 111.662 168.311H115.826C116.208 172.048 116.452 176.792 116.543 182.542C118.938 178.622 122.37 175.114 126.824 172.048C131.279 168.982 135.9 167.441 140.69 167.441C143.558 167.441 145.953 168.204 147.875 169.744C149.797 171.285 150.743 173.527 150.743 176.502C150.743 178.043 150.148 179.568 148.943 181.093C147.738 182.634 146.044 183.397 143.848 183.397C141.651 183.397 140.019 182.603 138.677 181.032C137.334 179.446 136.8 177.554 137.09 175.358C133.445 175.266 129.784 176.654 126.092 179.522C122.401 182.39 119.258 186.234 116.681 191.024L116.818 226.382C116.818 230.699 116.619 233.948 116.238 236.16L125.299 235.733V241.621H95.8436V237.304L95.8589 237.274Z" fill="#080A25"></path>
    <path d="M166.771 239.211C161.447 236.099 157.268 231.645 154.202 225.849C151.136 220.052 149.61 213.371 149.61 205.805C149.61 199.109 151.136 192.793 154.202 186.905C157.268 181.017 161.554 176.289 167.061 172.75C172.568 169.211 178.822 167.426 185.808 167.426C191.269 167.426 196.196 168.631 200.604 171.026C205.013 173.421 208.506 176.99 211.099 181.734C213.692 186.478 214.973 192.29 214.973 199.2L164.391 200.07C164.3 211.571 166.191 220.525 170.066 226.947C173.94 233.369 179.95 236.572 188.096 236.572C192.504 236.572 197.035 235.428 201.672 233.125C206.325 230.822 209.879 228 212.38 224.644L215.828 227.511C212.182 233.064 207.469 237.182 201.672 239.867C195.876 242.552 190.201 243.894 184.649 243.894C178.044 243.894 172.079 242.338 166.756 239.226L166.771 239.211ZM201.474 194.014C201.474 188.263 200.177 183.336 197.599 179.202C195.006 175.084 191.132 173.024 185.96 173.024C174.078 173.024 167.046 180.026 164.834 194.014H201.474Z" fill="#080A25"></path>
    <path d="M225.84 239.135C222.148 235.978 220.303 231.859 220.303 226.78C220.303 221.227 222.53 216.529 226.984 212.7C231.438 208.871 237.036 206.019 243.794 204.143C250.551 202.282 257.324 201.397 264.127 201.489V192.58C264.127 186.357 263.212 181.491 261.397 177.997C259.582 174.504 255.692 172.75 249.758 172.75C246.784 172.75 243.962 173.376 241.277 174.611C238.592 175.862 236.624 177.723 235.389 180.209C236.64 181.552 237.25 183.367 237.25 185.67C237.25 187.104 236.716 188.477 235.663 189.774C234.611 191.07 233.07 191.711 231.072 191.711C229.074 191.711 227.472 191.07 226.328 189.774C225.184 188.477 224.604 186.784 224.604 184.663C224.604 181.506 225.825 178.608 228.265 175.969C230.706 173.33 234.108 171.255 238.47 169.715C242.833 168.189 247.684 167.411 253.053 167.411C261.107 167.411 267.041 169.547 270.87 173.803C274.698 178.059 276.575 184.801 276.468 193.999L276.33 226.337C276.33 229.403 276.132 232.652 275.751 236.115L285.956 235.535V241.576H265.409C265.119 240.142 264.783 237.412 264.402 233.385C257.4 240.386 249.88 243.879 241.841 243.879C234.84 243.879 229.501 242.293 225.825 239.135H225.84ZM255.082 233.598C258.056 232.21 261.061 230.074 264.143 227.207C264.051 225.773 264.005 223.332 264.005 219.885L264.143 206.37C256.287 206.66 249.285 208.261 243.168 211.19C237.036 214.119 233.97 218.588 233.97 224.629C233.97 228.168 235.023 230.898 237.128 232.82C239.233 234.742 241.918 235.688 245.182 235.688C248.828 235.688 252.122 234.986 255.097 233.598H255.082Z" fill="#080A25"></path>
    <path d="M293.595 217.429L293.885 175.756L282.826 175.893V169.715C287.418 169.624 291.323 167.534 294.541 163.461C297.745 159.388 300.124 154.766 301.65 149.595H306.531V169.715H330.678V175.313L306.531 175.603C306.439 190.262 306.363 200.421 306.317 206.065C306.271 211.724 306.241 214.882 306.241 215.553C306.241 222.356 307.049 227.406 308.682 230.716C310.314 234.026 313.136 235.673 317.163 235.673C319.649 235.673 322.12 234.91 324.561 233.37C327.002 231.844 329.137 229.739 330.952 227.055L334.827 230.212C331.09 235.765 327.398 239.441 323.768 241.21C320.122 242.98 316.583 243.864 313.136 243.864C300.002 243.864 293.489 235.048 293.595 217.414V217.429Z" fill="#080A25"></path>
    <path d="M340.303 237.273C343.079 237.273 345.062 236.572 346.268 235.183C347.457 233.795 348.19 232.026 348.418 229.875C348.662 227.724 348.784 224.338 348.784 219.746V186.981C348.784 184.205 348.967 181.093 349.364 177.646L339.159 178.225V172.185C344.818 172.185 348.861 171.849 351.301 171.178C353.742 170.507 355.633 169.546 356.976 168.31H361.14V226.367C361.14 230.684 360.942 233.933 360.56 236.144L369.621 235.717V241.605H340.303V237.289V237.273ZM349.212 151.546C347.671 149.868 346.908 147.885 346.908 145.582C346.908 143.278 347.701 141.265 349.273 139.541C350.859 137.818 352.644 136.948 354.657 136.948C356.854 136.948 358.699 137.787 360.194 139.465C361.674 141.143 362.421 143.187 362.421 145.567C362.421 147.946 361.628 149.853 360.057 151.531C358.471 153.209 356.625 154.048 354.52 154.048C352.415 154.048 350.737 153.209 349.196 151.531L349.212 151.546Z" fill="#080A25"></path>
    <path d="M381.688 195.158C377.859 186.341 375.846 179.69 375.648 175.175L369.47 175.602V169.714H395.905V174.031C391.695 174.031 389.574 175.801 389.574 179.355C389.574 181.948 390.581 185.487 392.595 189.987L403.654 215.278C404.905 218.252 406.339 221.791 407.971 225.91H408.108C408.398 224.949 408.779 223.896 409.252 222.752L411.403 216.574L422.904 185.105C423.865 182.329 425.299 179.019 427.221 175.19L418.023 175.618V169.73H440.736V174.046C438.723 174.046 436.999 174.748 435.565 176.136C434.131 177.524 432.804 179.462 431.614 181.963C430.409 184.45 428.808 188.278 426.794 193.465L407.971 242.033H402.22L381.673 195.188L381.688 195.158Z" fill="#080A25"></path>
    <path d="M455.059 239.211C449.735 236.099 445.556 231.645 442.49 225.849C439.424 220.052 437.898 213.371 437.898 205.805C437.898 199.109 439.424 192.793 442.49 186.905C445.556 181.017 449.842 176.289 455.349 172.75C460.856 169.211 467.11 167.426 474.096 167.426C479.557 167.426 484.484 168.631 488.892 171.026C493.301 173.421 496.794 176.99 499.387 181.734C501.98 186.478 503.262 192.29 503.262 199.2L452.68 200.07C452.588 211.571 454.479 220.525 458.354 226.947C462.228 233.369 468.238 236.572 476.384 236.572C480.792 236.572 485.323 235.428 489.96 233.125C494.613 230.822 498.167 228 500.668 224.644L504.116 227.511C500.47 233.064 495.757 237.182 489.96 239.867C484.164 242.552 478.489 243.894 472.937 243.894C466.332 243.894 460.367 242.338 455.044 239.226L455.059 239.211ZM489.762 194.014C489.762 188.263 488.465 183.336 485.887 179.202C483.294 175.084 479.42 173.024 474.249 173.024C462.366 173.024 455.334 180.026 453.122 194.014H489.762Z" fill="#080A25"></path>
    <path d="M551.111 236.831C554.467 236.74 556.862 235.977 558.296 234.528C559.73 233.094 560.554 231.386 560.737 229.433C560.92 227.466 561.026 224.049 561.026 219.152V157.069C561.026 153.042 561.164 149.594 561.453 146.726L551.111 147.306V140.991H583.45V145.735C580.094 145.826 577.699 146.604 576.265 148.038C574.831 149.472 574.007 151.181 573.824 153.148C573.626 155.116 573.535 158.533 573.535 163.414V224.491C573.535 229.571 573.397 233.354 573.107 235.84L583.45 235.26V241.591H551.111V236.847V236.831Z" fill="#080A25"></path>
    <path d="M589.341 237.274C592.117 237.274 594.1 236.572 595.305 235.184C596.495 233.796 597.197 232.072 597.395 230.013C597.593 227.953 597.73 224.521 597.822 219.732L597.959 186.966C597.959 182.939 598.142 179.827 598.539 177.631L588.334 178.21V172.17C593.993 172.17 597.868 171.865 599.973 171.239C602.078 170.614 603.847 169.638 605.296 168.295H609.461C609.644 170.126 609.842 173.039 610.04 177.066C613.289 174.199 617.011 171.865 621.176 170.095C625.34 168.326 629.443 167.441 633.47 167.441C641.799 167.441 647.885 170.05 651.714 175.266C655.543 180.483 657.465 188.614 657.465 199.627V226.352C657.465 230.669 657.267 233.918 656.885 236.13L665.946 235.702V241.59H636.628V237.274C639.404 237.274 641.387 236.572 642.592 235.184C643.782 233.796 644.514 232.026 644.743 229.875C644.987 227.725 645.109 224.338 645.109 219.747V199.627C645.018 191.39 643.675 185.181 641.082 181.017C638.489 176.853 634.416 174.763 628.864 174.763C625.416 174.763 621.984 175.632 618.583 177.356C615.181 179.08 612.374 181.337 610.178 184.114C610.269 185.166 610.315 187.042 610.315 189.727L610.178 226.367C610.178 230.684 609.979 233.933 609.598 236.145L618.659 235.718V241.606H589.341V237.289V237.274Z" fill="#080A25"></path>
    <path d="M670.824 237.274C673.6 237.274 675.583 236.572 676.788 235.184C677.978 233.796 678.68 232.072 678.878 230.013C679.077 227.953 679.214 224.521 679.305 219.732L679.443 186.966C679.443 182.939 679.626 179.827 680.022 177.631L669.817 178.21V172.17C675.477 172.17 679.351 171.865 681.456 171.239C683.561 170.614 685.331 169.638 686.78 168.295H690.944C691.127 170.126 691.325 173.039 691.524 177.066C694.773 174.199 698.495 171.865 702.659 170.095C706.823 168.326 710.927 167.441 714.954 167.441C723.282 167.441 729.369 170.05 733.198 175.266C737.026 180.483 738.948 188.614 738.948 199.627V226.352C738.948 230.669 738.75 233.918 738.369 236.13L747.429 235.702V241.59H718.111V237.274C720.888 237.274 722.871 236.572 724.076 235.184C725.265 233.796 725.998 232.026 726.226 229.875C726.471 227.725 726.593 224.338 726.593 219.747V199.627C726.501 191.39 725.159 185.181 722.566 181.017C719.972 176.853 715.9 174.763 710.347 174.763C706.9 174.763 703.468 175.632 700.066 177.356C696.664 179.08 693.858 181.337 691.661 184.114C691.753 185.166 691.798 187.042 691.798 189.727L691.661 226.367C691.661 230.684 691.463 233.933 691.081 236.145L700.142 235.718V241.606H670.824V237.289V237.274Z" fill="#080A25"></path>
    <path d="M768.479 239.211C762.972 236.099 758.61 231.767 755.406 226.2C752.203 220.647 750.586 214.363 750.586 207.376C750.586 199.902 752.172 193.129 755.33 187.043C758.488 180.956 762.82 176.167 768.342 172.674C773.848 169.18 779.95 167.426 786.662 167.426C793.373 167.426 799.353 169.028 804.905 172.246C810.458 175.465 814.851 179.843 818.054 185.395C821.257 190.948 822.874 197.126 822.874 203.929C822.874 211.205 821.273 217.917 818.054 224.049C814.836 230.181 810.488 235.016 804.981 238.571C799.475 242.109 793.358 243.894 786.662 243.894C779.965 243.894 773.985 242.338 768.479 239.226V239.211ZM803.243 229.51C806.553 223.759 808.2 216.62 808.2 208.093C808.2 198.422 806.4 190.124 802.815 183.229C799.215 176.334 793.831 172.887 786.646 172.887C779.462 172.887 774.214 175.816 770.63 181.658C767.045 187.5 765.245 194.685 765.245 203.212C765.245 209.344 766.084 215.064 767.762 220.388C769.44 225.711 771.972 229.998 775.374 233.247C778.775 236.511 782.924 238.128 787.806 238.128C794.792 238.128 799.948 235.26 803.258 229.51H803.243Z" fill="#080A25"></path>
    <path d="M834.516 195.158C830.688 186.341 828.674 179.69 828.476 175.175L822.298 175.602V169.714H848.733V174.031C844.523 174.031 842.403 175.801 842.403 179.355C842.403 181.948 843.409 185.487 845.423 189.987L856.482 215.278C857.733 218.252 859.167 221.791 860.799 225.91H860.936C861.226 224.949 861.607 223.896 862.08 222.752L864.231 216.574L875.732 185.105C876.693 182.329 878.127 179.019 880.049 175.19L870.851 175.618V169.73H893.564V174.046C891.551 174.046 889.827 174.748 888.393 176.136C886.959 177.524 885.632 179.462 884.442 181.963C883.237 184.45 881.636 188.278 879.622 193.465L860.799 242.033H855.048L834.501 195.188L834.516 195.158Z" fill="#080A25"></path>
    <path d="M895.804 239.135C892.112 235.978 890.267 231.859 890.267 226.78C890.267 221.227 892.494 216.529 896.948 212.7C901.402 208.871 907 206.019 913.758 204.143C920.515 202.282 927.288 201.397 934.091 201.489V192.58C934.091 186.357 933.176 181.491 931.361 177.997C929.545 174.504 925.656 172.75 919.722 172.75C916.747 172.75 913.925 173.376 911.241 174.611C908.556 175.862 906.588 177.723 905.353 180.209C906.604 181.552 907.214 183.367 907.214 185.67C907.214 187.104 906.68 188.477 905.627 189.774C904.575 191.07 903.034 191.711 901.036 191.711C899.038 191.711 897.436 191.07 896.292 189.774C895.148 188.477 894.568 186.784 894.568 184.663C894.568 181.506 895.788 178.608 898.229 175.969C900.67 173.33 904.071 171.255 908.434 169.715C912.797 168.189 917.647 167.411 923.017 167.411C931.071 167.411 937.005 169.547 940.833 173.803C944.662 178.059 946.538 184.801 946.432 193.999L946.294 226.337C946.294 229.403 946.096 232.652 945.715 236.115L955.92 235.535V241.576H935.373C935.083 240.142 934.747 237.412 934.366 233.385C927.364 240.386 919.844 243.879 911.805 243.879C904.804 243.879 899.465 242.293 895.789 239.135H895.804ZM925.046 233.598C928.02 232.21 931.025 230.074 934.106 227.207C934.015 225.773 933.969 223.332 933.969 219.885L934.106 206.37C926.251 206.66 919.249 208.261 913.132 211.19C907 214.119 903.934 218.588 903.934 224.629C903.934 228.168 904.987 230.898 907.092 232.82C909.197 234.742 911.881 235.688 915.146 235.688C918.791 235.688 922.086 234.986 925.061 233.598H925.046Z" fill="#080A25"></path>
    <path d="M963.989 217.429L964.279 175.756L953.22 175.893V169.715C957.811 169.624 961.716 167.534 964.935 163.461C968.138 159.388 970.518 154.766 972.043 149.595H976.924V169.715H1001.07V175.313L976.924 175.603C976.833 190.262 976.756 200.421 976.711 206.065C976.665 211.724 976.634 214.882 976.634 215.553C976.634 222.356 977.443 227.406 979.075 230.716C980.707 234.026 983.529 235.673 987.556 235.673C990.043 235.673 992.514 234.91 994.954 233.37C997.395 231.844 999.531 229.739 1001.35 227.055L1005.22 230.212C1001.48 235.765 997.792 239.441 994.161 241.21C990.516 242.98 986.977 243.864 983.529 243.864C970.396 243.864 963.882 235.048 963.989 217.414V217.429Z" fill="#080A25"></path>
    <path d="M1010.55 237.273C1013.32 237.273 1015.31 236.572 1016.51 235.183C1017.7 233.795 1018.43 232.026 1018.66 229.875C1018.91 227.724 1019.03 224.338 1019.03 219.746V186.981C1019.03 184.205 1019.21 181.093 1019.61 177.646L1009.4 178.225V172.185C1015.06 172.185 1019.1 171.849 1021.54 171.178C1023.99 170.507 1025.88 169.546 1027.22 168.31H1031.38V226.367C1031.38 230.684 1031.19 233.933 1030.8 236.144L1039.86 235.717V241.605H1010.55V237.289V237.273ZM1019.45 151.546C1017.91 149.868 1017.15 147.885 1017.15 145.582C1017.15 143.278 1017.94 141.265 1019.52 139.541C1021.1 137.818 1022.89 136.948 1024.9 136.948C1027.1 136.948 1028.94 137.787 1030.44 139.465C1031.92 141.143 1032.66 143.187 1032.66 145.567C1032.66 147.946 1031.87 149.853 1030.3 151.531C1028.71 153.209 1026.87 154.048 1024.76 154.048C1022.66 154.048 1020.98 153.209 1019.44 151.531L1019.45 151.546Z" fill="#080A25"></path>
    <path d="M1062.08 239.211C1056.57 236.099 1052.21 231.767 1049 226.2C1045.8 220.647 1044.18 214.363 1044.18 207.376C1044.18 199.902 1045.77 193.129 1048.93 187.043C1052.08 180.956 1056.42 176.167 1061.94 172.674C1067.44 169.18 1073.55 167.426 1080.26 167.426C1086.97 167.426 1092.95 169.028 1098.5 172.246C1104.05 175.465 1108.45 179.843 1111.65 185.395C1114.85 190.948 1116.47 197.126 1116.47 203.929C1116.47 211.205 1114.87 217.917 1111.65 224.049C1108.43 230.181 1104.08 235.016 1098.58 238.571C1093.07 242.109 1086.95 243.894 1080.26 243.894C1073.56 243.894 1067.58 242.338 1062.08 239.226V239.211ZM1096.85 229.51C1100.16 223.759 1101.81 216.62 1101.81 208.093C1101.81 198.422 1100.01 190.124 1096.43 183.229C1092.83 176.334 1087.44 172.887 1080.26 172.887C1073.07 172.887 1067.83 175.816 1064.24 181.658C1060.66 187.5 1058.86 194.685 1058.86 203.212C1058.86 209.344 1059.7 215.064 1061.37 220.388C1063.05 225.711 1065.58 229.998 1068.99 233.247C1072.39 236.511 1076.54 238.128 1081.42 238.128C1088.4 238.128 1093.56 235.26 1096.87 229.51H1096.85Z" fill="#080A25"></path>
    <path d="M1120.05 237.274C1122.83 237.274 1124.81 236.572 1126.02 235.184C1127.21 233.796 1127.91 232.072 1128.11 230.013C1128.31 227.953 1128.44 224.521 1128.53 219.732L1128.67 186.966C1128.67 182.939 1128.85 179.827 1129.25 177.631L1119.05 178.21V172.17C1124.71 172.17 1128.58 171.865 1130.68 171.239C1132.79 170.614 1134.56 169.638 1136.01 168.295H1140.17C1140.36 170.126 1140.55 173.039 1140.75 177.066C1144 174.199 1147.72 171.865 1151.89 170.095C1156.05 168.326 1160.16 167.441 1164.18 167.441C1172.51 167.441 1178.6 170.05 1182.43 175.266C1186.25 180.483 1188.18 188.614 1188.18 199.627V226.352C1188.18 230.669 1187.98 233.918 1187.6 236.13L1196.66 235.702V241.59H1167.34V237.274C1170.12 237.274 1172.1 236.572 1173.3 235.184C1174.49 233.796 1175.23 232.026 1175.46 229.875C1175.7 227.725 1175.82 224.338 1175.82 219.747V199.627C1175.73 191.39 1174.39 185.181 1171.79 181.017C1169.2 176.853 1165.13 174.763 1159.58 174.763C1156.13 174.763 1152.7 175.632 1149.29 177.356C1145.89 179.08 1143.09 181.337 1140.89 184.114C1140.98 185.166 1141.03 187.042 1141.03 189.727L1140.89 226.367C1140.89 230.684 1140.69 233.933 1140.31 236.145L1149.37 235.718V241.606H1120.05V237.289V237.274Z" fill="#080A25"></path>
    <path d="M1025.13 154.248C1029.99 154.248 1033.93 150.307 1033.93 145.446C1033.93 140.585 1029.99 136.645 1025.13 136.645C1020.27 136.645 1016.33 140.585 1016.33 145.446C1016.33 150.307 1020.27 154.248 1025.13 154.248Z" fill="#DF3128"></path>
    <path d="M354.245 154.248C359.106 154.248 363.046 150.307 363.046 145.446C363.046 140.585 359.106 136.645 354.245 136.645C349.384 136.645 345.443 140.585 345.443 145.446C345.443 150.307 349.384 154.248 354.245 154.248Z" fill="#DF3128"></path>
  </g>
  <defs>
    <clipPath id="clip0_575_9840">
      <rect width="1196.64" height="243.88" fill="white"></rect>
    </clipPath>
  </defs>
</svg>
