<?xml version="1.0" encoding="UTF-8"?>
<svg width="346px" height="25px" viewBox="0 0 346 25" version="1.1" xmlns="http://www.w3.org/2000/svg" xmlns:xlink="http://www.w3.org/1999/xlink">
    <title>Artboard</title>
    <g id="Artboard" stroke="none" stroke-width="1" fill="none" fill-rule="evenodd">
        <g id="Logo-Limoen-Dutch-Graffiti-Library" transform="translate(1, 0.5)" fill="#000000" fill-rule="nonzero" stroke="#000000" stroke-width="0.5">
            <path d="M101.600587,17.4265062 C100.167759,18.4907832 98.4264182,19.0577316 96.6416482,19.0410446 C94.5453083,19.1813109 92.5155423,18.2743938 91.2214123,16.6192371 C89.8637003,14.5347057 89.2164403,12.0670267 89.376226,9.58446317 C89.2062799,7.11661961 89.8110338,4.65728701 91.1060884,2.54968928 C92.3614357,0.834365541 94.4049854,-0.122189644 96.5263243,0.0125577056 L99.1787795,0.358530193 C99.9198007,0.540995777 100.622616,0.853358029 101.254614,1.28112349 L100.562669,3.01098593 C99.3333254,2.31256231 97.940089,1.95430167 96.5263243,1.97306847 C95.0207316,1.87193677 93.5736853,2.5735351 92.720627,3.81825507 C91.7607254,5.58158711 91.3208361,7.58108329 91.4520609,9.58446317 C91.4520609,14.6587263 93.1050404,17.1958579 96.4109996,17.1958579 C97.4370043,17.273581 98.4576422,16.9878026 99.2941042,16.3885888 L99.2941042,11.8909464 L96.1803518,11.8909464 L96.1803518,10.0457599 L101.600587,10.0457599 L101.600587,17.4265062 Z" id="Path"></path>
            <path d="M117.054025,5.66344167 L116.246756,7.62395243 C115.524115,7.27974256 114.739878,7.0836833 113.940273,7.04733162 C113.332445,7.04103471 112.734395,7.20051481 112.21041,7.50862827 C111.579077,7.89759211 111.030472,8.40701127 110.595872,9.00784241 L109.903927,10.0457599 L109.903927,18.8103962 L107.943416,18.8103962 L107.943416,5.20214502 L109.903927,5.20214502 L109.903927,7.96992492 C110.980286,5.89409 112.364176,4.85617253 114.055596,4.85617253 C115.103935,4.89055116 116.130132,5.16683495 117.054025,5.66344167 L117.054025,5.66344167 Z" id="Path"></path>
            <path d="M133.199408,18.8103962 L131.238897,18.8103962 C131.059283,18.0945034 130.981634,17.3568383 131.008248,16.6192371 C129.990705,18.2405099 128.19348,19.2048748 126.279958,19.1563687 C125.294789,19.1667747 124.343974,18.7947168 123.627502,18.1184512 C122.856074,17.4094282 122.434515,16.3976835 122.474261,15.3506713 C122.448041,14.7545602 122.566756,14.1609806 122.820233,13.6208089 C123.096066,13.1106753 123.491859,12.6753021 123.973475,12.3522431 C124.541616,11.9865967 125.16453,11.7140721 125.818661,11.544974 L128.471117,11.0836773 L130.777601,10.853029 L130.777601,10.161084 C130.777601,7.85460075 129.701241,6.70135913 127.548523,6.70135913 L125.588013,7.04733162 L123.627502,7.85460075 L123.050881,6.35538664 C124.646084,5.48797491 126.425171,5.01355171 128.240468,4.97149669 C131.31578,4.97149669 132.853436,6.58603497 132.853436,9.81511152 L132.853436,15.5813197 C132.836042,16.6677873 132.952237,17.7522748 133.199408,18.8103962 L133.199408,18.8103962 Z M130.892924,14.7740505 L130.892924,12.3522431 L127.087227,12.8135398 C126.457041,12.9485379 125.865622,13.2245336 125.357365,13.6208089 C124.885034,14.0197726 124.62858,14.6181676 124.66542,15.2353472 C124.647127,15.8161622 124.903511,16.3716599 125.357365,16.7345613 C125.807233,17.1172016 126.381418,17.3222677 126.971903,17.3111821 C127.752843,17.2912755 128.512322,17.0514402 129.163062,16.6192371 C129.818198,16.1172417 130.367013,15.4900255 130.777601,14.7740505 L130.892924,14.7740505 Z" id="Shape"></path>
            <path d="M148.883494,0.704502683 L148.306873,2.31904095 C147.486193,2.0501469 146.632548,1.89493865 145.769741,1.85774431 C145.203065,1.77008476 144.632412,1.98956671 144.270528,2.43436512 C143.900848,3.22624174 143.741952,4.10017305 143.80923,4.97149669 L143.80923,5.20214502 L148.306873,5.20214502 L148.306873,6.93200746 L143.80923,6.93200746 L143.80923,18.8103962 L141.733395,18.8103962 L141.733395,7.04733162 L138.388995,7.04733162 L138.388995,5.20214502 L141.733395,5.20214502 L141.733395,4.74084837 C141.631959,3.47947913 141.95684,2.2205659 142.655989,1.16579933 C143.456697,0.399801303 144.5515,0.0208311057 145.654418,0.127881868 C146.754159,0.151535905 147.843534,0.346067119 148.883494,0.704502683 Z" id="Path"></path>
            <path d="M164.798228,0.704502683 L164.221607,2.31904095 C163.400928,2.0501469 162.547283,1.89493865 161.684476,1.85774431 C161.1178,1.77008476 160.547147,1.98956671 160.185262,2.43436512 C159.815583,3.22624174 159.656686,4.10017305 159.723965,4.97149669 L159.723965,5.20214502 L164.221607,5.20214502 L164.221607,6.93200746 L159.83929,6.93200746 L159.83929,18.8103962 L157.763455,18.8103962 L157.763455,7.04733162 L154.419054,7.04733162 L154.419054,5.20214502 L157.763455,5.20214502 L157.763455,4.74084837 C157.662018,3.47947913 157.986898,2.2205659 158.686047,1.16579933 C159.486756,0.399801303 160.581559,0.0208311057 161.684476,0.127881868 C162.745394,0.163241836 163.795001,0.357613244 164.798228,0.704502683 Z" id="Path"></path>
            <path d="M177.253238,18.8103962 L175.177403,18.8103962 L175.177403,7.04733162 L171.141057,7.04733162 L171.141057,5.20214502 L177.137914,5.20214502 L177.253238,18.8103962 Z M176.21532,0.127881868 C176.574307,0.14403434 176.9096,0.311680865 177.137914,0.589178518 C177.362521,0.84384882 177.485656,1.17220987 177.483886,1.51177182 C177.51602,1.890579 177.390905,2.26592402 177.137914,2.54968928 C176.889563,2.78461528 176.556906,2.90936147 176.21532,2.89566177 C175.856334,2.8795093 175.521041,2.71186277 175.292727,2.43436512 C175.025814,2.19777135 174.860558,1.86725813 174.83143,1.51177182 C174.860558,1.15628551 175.025814,0.825772285 175.292727,0.589178518 C175.546692,0.280467174 175.931315,0.109523905 176.330644,0.127881868 L176.21532,0.127881868 Z" id="Shape"></path>
            <path d="M196.743021,18.1184512 C195.480996,18.7167792 194.103321,19.0316764 192.706676,19.0410446 C190.323309,19.0410446 189.131626,17.7724787 189.131626,15.2353472 L189.131626,7.04733162 L186.594495,7.04733162 L186.594495,5.20214502 L189.246951,5.20214502 L189.246951,1.51177182 L191.207461,1.51177182 L191.207461,5.20214502 L195.820428,5.20214502 L195.820428,6.93200746 L191.207461,6.93200746 L191.207461,14.6587263 C191.164174,15.3595884 191.368241,16.0534131 191.784082,16.6192371 C192.146984,17.0730909 192.702482,17.3294745 193.283296,17.3111821 C194.396568,17.3123516 195.497331,17.0764739 196.512373,16.6192371 L196.743021,18.1184512 Z" id="Path"></path>
            <path d="M209.198031,18.8103962 L207.122196,18.8103962 L207.122196,7.04733162 L203.08585,7.04733162 L203.08585,5.20214502 L209.082707,5.20214502 L209.198031,18.8103962 Z M208.160113,0.127881868 C208.5191,0.14403434 208.854392,0.311680865 209.082707,0.589178518 C209.307314,0.84384882 209.43045,1.17220987 209.428679,1.51177182 C209.460813,1.890579 209.335698,2.26592402 209.082707,2.54968928 C208.834355,2.78461528 208.501699,2.90936147 208.160113,2.89566177 C207.801127,2.8795093 207.465834,2.71186277 207.23752,2.43436512 C206.970608,2.19777135 206.805351,1.86725813 206.776223,1.51177182 C206.805351,1.15628551 206.970608,0.825772285 207.23752,0.589178518 C207.465834,0.311680865 207.801127,0.14403434 208.160113,0.127881868 L208.160113,0.127881868 Z" id="Shape"></path>
            <polygon id="Path" points="236.87583 18.8103962 226.957952 18.8103962 226.957952 0.473854355 229.033787 0.473854355 229.033787 16.9652096 236.87583 16.9652096"></polygon>
            <path d="M249.330839,18.8103962 L247.255004,18.8103962 L247.255004,7.04733162 L243.218659,7.04733162 L243.218659,5.20214502 L249.215515,5.20214502 L249.330839,18.8103962 Z M248.292922,0.127881868 C248.651909,0.14403434 248.987201,0.311680865 249.215515,0.589178518 C249.440122,0.84384882 249.563258,1.17220987 249.561488,1.51177182 C249.593622,1.890579 249.468507,2.26592402 249.215515,2.54968928 C248.967164,2.78461528 248.634508,2.90936147 248.292922,2.89566177 C247.933935,2.8795093 247.598642,2.71186277 247.370329,2.43436512 C247.103416,2.19777135 246.938159,1.86725813 246.909032,1.51177182 C246.938159,1.15628551 247.103416,0.825772285 247.370329,0.589178518 C247.624294,0.280467174 248.008916,0.109523905 248.408246,0.127881868 L248.292922,0.127881868 Z" id="Shape"></path>
            <path d="M260.286635,7.04733162 C260.767594,6.40205967 261.401759,5.88680035 262.131821,5.54811751 C262.883419,5.17061414 263.712556,4.97320059 264.553629,4.97149669 C266.019126,4.91141928 267.412765,5.60823884 268.244002,6.81668329 C269.164297,8.3009249 269.607074,10.0317806 269.512568,11.7756223 C269.576147,13.6044486 269.094434,15.410873 268.128678,16.9652096 C267.332254,18.2980086 265.874735,19.093019 264.322981,19.0410446 C263.516977,19.0536646 262.721738,18.8548546 262.016497,18.4644237 C261.312355,18.0815587 260.717095,17.5259821 260.286635,16.8498854 L260.286635,18.8103962 L258.2108,18.8103962 L258.2108,0.473854355 L260.286635,0.473854355 L260.286635,7.04733162 Z M260.286635,9.00784241 L260.286635,14.6587263 C260.632465,15.4167269 261.144939,16.0868853 261.785849,16.6192371 C262.329865,17.1013171 263.020623,17.3857465 263.74636,17.4265062 C264.837455,17.4466854 265.853362,16.8724774 266.398816,15.9272922 C267.054504,14.769298 267.374019,13.4512978 267.321408,12.1215948 C267.386742,10.7906568 267.06638,9.46916334 266.398816,8.31589741 C265.891686,7.38903583 264.918208,6.81379952 263.861684,6.8166725 C262.368568,6.87079232 261.012513,7.70192254 260.286635,9.00784241 L260.286635,9.00784241 Z" id="Shape"></path>
            <path d="M284.850681,5.66344167 L284.043413,7.62395243 C283.320771,7.27974256 282.536535,7.0836833 281.736929,7.04733162 C281.129101,7.04103471 280.531051,7.20051481 280.007067,7.50862827 C279.375733,7.89759211 278.827128,8.40701127 278.392528,9.00784241 L277.700583,10.0457599 L277.700583,18.8103962 L275.740073,18.8103962 L275.740073,5.20214502 L277.700583,5.20214502 L277.700583,7.96992492 C278.776942,5.89409 280.160832,4.85617253 281.852253,4.85617253 C282.900592,4.89055116 283.926789,5.16683495 284.850681,5.66344167 L284.850681,5.66344167 Z" id="Path"></path>
            <path d="M300.88074,18.8103962 L298.92023,18.8103962 C298.740615,18.0945034 298.662966,17.3568383 298.689581,16.6192371 C297.672038,18.2405099 295.874812,19.2048748 293.96129,19.1563687 C292.976121,19.1667747 292.025307,18.7947168 291.308835,18.1184512 C290.537407,17.4094282 290.115846,16.3976835 290.155593,15.3506713 C290.129372,14.7545602 290.248088,14.1609806 290.501565,13.6208089 C290.777399,13.1106753 291.173192,12.6753021 291.654807,12.3522431 C292.222949,11.9865967 292.845862,11.7140721 293.499994,11.544974 L296.15245,11.0836773 L298.458932,10.853029 L298.458932,10.161084 C298.458932,7.85460075 297.382574,6.70135913 295.229856,6.70135913 L293.269345,7.04733162 L291.308835,7.85460075 L290.732214,6.35538664 C292.327417,5.48797491 294.106503,5.01355171 295.921801,4.97149669 C298.997112,4.97149669 300.534767,6.58603497 300.534767,9.81511152 L300.534767,15.5813197 C300.517373,16.6677873 300.633568,17.7522748 300.88074,18.8103962 L300.88074,18.8103962 Z M298.574257,14.7740505 L298.574257,12.3522431 L294.76856,12.8135398 C294.138373,12.9485379 293.546954,13.2245336 293.038697,13.6208089 C292.566367,14.0197726 292.309912,14.6181676 292.346752,15.2353472 C292.32846,15.8161622 292.584843,16.3716599 293.038697,16.7345613 C293.488565,17.1172016 294.062751,17.3222677 294.653235,17.3111821 C295.434175,17.2912755 296.193653,17.0514402 296.844395,16.6192371 C297.541161,16.128978 298.129923,15.5009655 298.574257,14.7740505 L298.574257,14.7740505 Z" id="Shape"></path>
            <path d="M316.68015,5.66344167 L315.872881,7.62395243 C315.15024,7.27974256 314.366003,7.0836833 313.566398,7.04733162 C312.95857,7.04103471 312.36052,7.20051481 311.836535,7.50862827 C311.205202,7.89759211 310.656597,8.40701127 310.221997,9.00784241 L309.530052,10.0457599 L309.530052,18.8103962 L307.569542,18.8103962 L307.569542,5.20214502 L309.530052,5.20214502 L309.530052,7.96992492 C310.606411,5.89409 311.990301,4.85617253 313.681722,4.85617253 C314.730061,4.89055116 315.756258,5.16683495 316.68015,5.66344167 L316.68015,5.66344167 Z" id="Path"></path>
            <path d="M333.056181,5.20214502 L327.981919,18.6950721 C327.506522,20.1992112 326.764306,21.6055157 325.790759,22.8467419 C325.153132,23.5820005 324.226852,24.0030365 323.253628,24 C322.425498,23.989974 321.605642,23.8338108 320.83182,23.5386869 L321.177793,21.9241486 L322.907655,22.2701211 C323.617273,22.3163954 324.305217,22.0154201 324.752841,21.462852 C325.356113,20.6183491 325.823092,19.6843903 326.136731,18.6950721 L321.062469,5.20214502 L323.253628,5.20214502 L327.059325,15.9272922 L330.865022,5.20214502 L333.056181,5.20214502 Z" id="Path"></path>
            <path d="M343.089383,15.8119679 C343.981068,15.8119679 344.703922,16.5348214 344.703922,17.4265062 C344.698226,17.8547716 344.533856,18.2656968 344.242625,18.5797478 C343.942982,18.8930118 343.522411,19.0612404 343.089383,19.0410446 C342.656356,19.0612404 342.235785,18.8930118 341.936142,18.5797478 C341.644911,18.2656968 341.480541,17.8547716 341.474846,17.4265062 C341.468676,16.9959593 341.634745,16.5807855 341.936142,16.2732647 C342.235785,15.9600007 342.656356,15.7917721 343.089383,15.8119679 L343.089383,15.8119679 Z" id="Path"></path>
            <path d="M-7.10542736e-15,0.473854355 L3.57504904,0.473854355 C5.76399264,0.370211412 7.88277886,1.26010162 9.34125719,2.89566177 C10.874523,4.77711399 11.6552825,7.16048493 11.5324163,9.58446317 C11.7080902,12.0503625 10.922894,14.488603 9.34125719,16.3885888 C7.90882244,17.9923102 5.8395747,18.8791306 3.6903732,18.8103962 L-7.10542736e-15,18.8103962 L-7.10542736e-15,0.473854355 Z M2.19115909,16.9652096 L3.6903732,16.9652096 C5.31166649,17.0302899 6.86224237,16.2980735 7.84204305,15.0046988 C8.92298424,13.4547635 9.45104706,11.5862337 9.34125719,9.69978739 C9.44214069,7.81432307 8.91488139,5.94863616 7.84204305,4.39487588 C6.86224237,3.10150122 5.31166649,2.36928483 3.6903732,2.43436512 L2.19115909,2.43436512 L2.19115909,16.9652096 Z" id="Shape"></path>
            <path d="M26.4092332,18.8103962 L24.4487224,18.8103962 L24.4487224,16.7345613 C23.3071533,18.1220495 21.630688,18.9602822 19.835756,19.0410446 C17.2986244,19.0410446 16.0300586,17.503389 16.0300586,14.428078 L16.0300586,5.20214502 L17.9905694,5.20214502 L17.9905694,13.8514572 C17.9477838,14.7339295 18.1471853,15.6112961 18.5671901,16.3885888 C18.9864616,16.9771877 19.6955395,17.2874094 20.4123768,17.1958579 C21.6425012,17.1958579 22.9879497,16.4270301 24.4487224,14.8893747 L24.4487224,5.31746918 L26.5245574,5.31746918 L26.4092332,18.8103962 Z" id="Path"></path>
            <path d="M42.554616,18.1184512 C41.2925904,18.7167792 39.9149153,19.0316764 38.5182703,19.0410446 C36.1349042,19.0410446 34.9432213,17.7724787 34.9432213,15.2353472 L34.9432213,7.04733162 L32.2907655,7.04733162 L32.2907655,5.31746918 L34.9432213,5.31746918 L34.9432213,1.51177182 L36.903732,1.51177182 L36.903732,5.20214502 L41.5166985,5.20214502 L41.5166985,6.93200746 L36.903732,6.93200746 L36.903732,14.6587263 C36.8604448,15.3595884 37.0645108,16.0534131 37.4803528,16.6192371 C37.8432542,17.0730909 38.3987519,17.3294745 38.9795669,17.3111821 C40.0928389,17.3123516 41.1936014,17.0764739 42.2086435,16.6192371 L42.554616,18.1184512 Z" id="Path"></path>
            <path d="M58.2387021,18.3490996 C57.0065327,18.901928 55.668019,19.1775043 54.3176806,19.1563687 C52.4272381,19.2368417 50.5886628,18.5264831 49.2434174,17.1958579 C47.9485767,15.7886842 47.2823856,13.9150216 47.3982308,12.0062706 C47.3132714,10.080888 48.0219546,8.20496173 49.3587415,6.81668329 C50.703987,5.4860581 52.5425623,4.77569946 54.4330047,4.85617253 C55.7719667,4.83731272 57.1023965,5.07209447 58.3540262,5.54811751 L57.7774055,7.27797995 C56.7090708,6.86217729 55.5786246,6.62829188 54.4330047,6.58603497 C53.0945499,6.49094539 51.7835402,6.99843298 50.8579557,7.96992492 C49.9283601,9.10033219 49.4735951,10.547312 49.5893899,12.0062706 C49.5534706,13.4040912 50.0478802,14.7637179 50.9732798,15.8119679 C51.8512663,16.7943266 53.1158412,17.3423091 54.4330047,17.3111821 C55.6564042,17.2954589 56.8671375,17.0611234 58.0080537,16.6192371 L58.2387021,18.3490996 Z" id="Path"></path>
            <path d="M74.2687606,18.8103962 L72.3082499,18.8103962 L72.3082499,10.161084 C72.3864107,9.23911153 72.185504,8.31494078 71.7316291,7.50862827 C71.2970479,6.93919907 70.5995915,6.63406188 69.8864425,6.70135913 C68.6563181,6.70135913 67.3108695,7.47018688 65.8500968,9.00784241 L65.8500968,18.8103962 L63.889586,18.8103962 L63.889586,0.473854355 L65.9654209,0.473854355 L65.9654209,7.27797995 C67.1069901,5.89049168 68.7834553,5.05225905 70.5783875,4.97149669 C73.115519,4.97149669 74.3840849,6.5091522 74.3840849,9.58446317 L74.2687606,18.8103962 Z" id="Path"></path>
        </g>
    </g>
</svg>